<svg id="visual" viewBox="0 0 900 600" width="900" height="600" xmlns="http://www.w3.org/2000/svg" xmlns:xlink="http://www.w3.org/1999/xlink" version="1.1"><rect x="0" y="0" width="900" height="600" fill="#000"></rect><path d="M0 445L129 430L257 428L386 394L514 378L643 430L771 405L900 425L900 601L771 601L643 601L514 601L386 601L257 601L129 601L0 601Z" fill="#000000"></path><path d="M0 426L129 408L257 394L386 463L514 400L643 467L771 448L900 453L900 601L771 601L643 601L514 601L386 601L257 601L129 601L0 601Z" fill="#3b3b3b"></path><path d="M0 476L129 438L257 509L386 509L514 475L643 496L771 497L900 493L900 601L771 601L643 601L514 601L386 601L257 601L129 601L0 601Z" fill="#777777"></path><path d="M0 504L129 510L257 498L386 531L514 489L643 539L771 535L900 511L900 601L771 601L643 601L514 601L386 601L257 601L129 601L0 601Z" fill="#b9b9b9"></path><path d="M0 550L129 529L257 573L386 525L514 533L643 564L771 537L900 542L900 601L771 601L643 601L514 601L386 601L257 601L129 601L0 601Z" fill="#ffffff"></path></svg>