<svg id="visual" viewBox="0 0 900 600" width="900" height="600" xmlns="http://www.w3.org/2000/svg" xmlns:xlink="http://www.w3.org/1999/xlink" version="1.1"><path d="M0 394L129 354L257 364L386 416L514 350L643 393L771 379L900 390L900 601L771 601L643 601L514 601L386 601L257 601L129 601L0 601Z" fill="#ffffff"></path><path d="M0 396L129 393L257 452L386 463L514 394L643 436L771 446L900 433L900 601L771 601L643 601L514 601L386 601L257 601L129 601L0 601Z" fill="#b9b9b9"></path><path d="M0 488L129 489L257 460L386 476L514 441L643 457L771 479L900 438L900 601L771 601L643 601L514 601L386 601L257 601L129 601L0 601Z" fill="#777777"></path><path d="M0 484L129 503L257 531L386 524L514 488L643 532L771 484L900 516L900 601L771 601L643 601L514 601L386 601L257 601L129 601L0 601Z" fill="#3b3b3b"></path><path d="M0 571L129 529L257 549L386 573L514 572L643 561L771 573L900 559L900 601L771 601L643 601L514 601L386 601L257 601L129 601L0 601Z" fill="#000000"></path></svg>