<svg id="visual" viewBox="0 0 900 600" width="900" height="600" xmlns="http://www.w3.org/2000/svg" xmlns:xlink="http://www.w3.org/1999/xlink" version="1.1"><rect x="0" y="0" width="900" height="600" fill="#000"></rect><path d="M0 370L129 367L257 387L386 373L514 363L643 408L771 413L900 435L900 601L771 601L643 601L514 601L386 601L257 601L129 601L0 601Z" fill="#000000"></path><path d="M0 394L129 394L257 435L386 470L514 397L643 409L771 464L900 406L900 601L771 601L643 601L514 601L386 601L257 601L129 601L0 601Z" fill="#3b3b3b"></path><path d="M0 444L129 444L257 467L386 468L514 503L643 481L771 496L900 501L900 601L771 601L643 601L514 601L386 601L257 601L129 601L0 601Z" fill="#777777"></path><path d="M0 523L129 535L257 492L386 521L514 526L643 519L771 528L900 537L900 601L771 601L643 601L514 601L386 601L257 601L129 601L0 601Z" fill="#b9b9b9"></path><path d="M0 544L129 565L257 558L386 559L514 571L643 573L771 533L900 562L900 601L771 601L643 601L514 601L386 601L257 601L129 601L0 601Z" fill="#ffffff"></path></svg>